<svg width="980" height="240" viewBox="0 0 980 240" fill="none" xmlns="http://www.w3.org/2000/svg" role="img" aria-labelledby="title desc">
  <title id="title">SuperQuery Horizontal Logo</title>
  <desc id="desc">SuperQuery horizontal wordmark with a red and blue Q lightning mark.</desc>
  <defs>
    <linearGradient id="superqueryRed" x1="34" y1="35" x2="144" y2="88" gradientUnits="userSpaceOnUse">
      <stop offset="0" stop-color="#FF4A3D"/>
      <stop offset="1" stop-color="#DC2626"/>
    </linearGradient>
    <linearGradient id="superqueryBlue" x1="142" y1="90" x2="34" y2="158" gradientUnits="userSpaceOnUse">
      <stop offset="0" stop-color="#2563EB"/>
      <stop offset="1" stop-color="#1D4ED8"/>
    </linearGradient>
    <linearGradient id="superqueryBolt" x1="92" y1="100" x2="161" y2="177" gradientUnits="userSpaceOnUse">
      <stop offset="0" stop-color="#2563EB"/>
      <stop offset="1" stop-color="#1D4ED8"/>
    </linearGradient>
  </defs>

  <g transform="translate(24 28)">
    <path d="M30 92C30 61.072 55.072 36 86 36C116.928 36 142 61.072 142 92"
          stroke="url(#superqueryRed)" stroke-width="22" stroke-linecap="round"/>
    <path d="M142 92C142 122.928 116.928 148 86 148C55.072 148 30 122.928 30 92"
          stroke="url(#superqueryBlue)" stroke-width="22" stroke-linecap="round"/>
    <path d="M88 95L158 165L121 128H144L91 84L104 112H76L88 95Z"
          fill="url(#superqueryBolt)"/>
  </g>

  <text x="210" y="145"
        font-family="Inter, Satoshi, Manrope, Arial, sans-serif"
        font-size="86"
        font-weight="800"
        letter-spacing="-4"
        fill="#F6FAFF">SuperQuery</text>
</svg>
